<?xml version="1.0" standalone="no"?>
<!DOCTYPE svg PUBLIC "-//W3C//DTD SVG 20010904//EN"
 "http://www.w3.org/TR/2001/REC-SVG-20010904/DTD/svg10.dtd">
<svg version="1.0" xmlns="http://www.w3.org/2000/svg"
 width="521.000000pt" height="521.000000pt" viewBox="0 0 521.000000 521.000000"
 preserveAspectRatio="xMidYMid meet">
<metadata>
Created by potrace 1.14, written by Peter Selinger 2001-2017
</metadata>
<g transform="translate(0.000000,521.000000) scale(0.100000,-0.100000)"
fill="#000000" stroke="none">
<path d="M2754 5176 c-22 -7 -53 -24 -68 -37 -31 -26 -116 -149 -116 -168 0
-6 -4 -19 -9 -29 -21 -42 -36 -104 -45 -197 l-11 -100 -35 119 c-31 105 -39
121 -70 145 -19 14 -43 36 -53 48 -20 25 -74 43 -126 43 -43 0 -108 -41 -143
-90 -28 -40 -51 -132 -41 -169 8 -31 -6 -26 -52 18 -113 111 -239 122 -353 32
-45 -36 -124 -138 -146 -188 -17 -38 -17 -49 -6 -105 16 -81 37 -123 102 -193
29 -32 49 -56 43 -54 -5 3 -26 12 -45 21 -33 16 -69 30 -80 32 -3 1 -11 5 -17
9 -7 5 -13 6 -13 3 0 -3 -12 -1 -27 5 -46 17 -158 12 -205 -9 -53 -23 -168
-135 -192 -187 -25 -53 -31 -105 -16 -162 10 -39 21 -55 63 -89 29 -22 66 -48
82 -56 17 -9 39 -25 49 -37 11 -12 23 -21 28 -21 5 0 25 -10 46 -23 20 -13 71
-34 112 -48 l75 -24 -55 -2 c-75 -3 -189 -23 -196 -34 -3 -5 -13 -9 -22 -9
-50 -1 -211 -121 -298 -222 -55 -64 -89 -128 -99 -185 -5 -34 -3 -48 14 -72
35 -49 82 -64 215 -71 l119 -5 -49 -32 c-50 -32 -154 -125 -154 -138 0 -3 -14
-24 -32 -46 -27 -33 -32 -48 -32 -94 -1 -46 3 -58 28 -84 54 -57 89 -63 324
-59 116 1 207 1 203 -2 -15 -10 -118 -136 -145 -177 -17 -25 -31 -65 -37 -106
-9 -59 -8 -69 13 -113 28 -60 71 -86 136 -86 112 1 250 64 345 158 15 15 29
25 31 23 2 -2 -9 -44 -25 -93 -48 -142 -31 -225 59 -291 44 -34 51 -35 112
-31 86 5 164 41 235 108 22 20 40 36 42 35 1 -2 3 -34 4 -72 3 -122 39 -205
120 -282 88 -83 115 -103 152 -115 30 -9 37 -16 37 -37 0 -36 -38 -326 -49
-381 -5 -25 -21 -103 -35 -175 -14 -71 -28 -138 -30 -147 -7 -26 -25 -55 -26
-40 0 12 -93 179 -134 238 -36 54 -179 226 -210 253 -180 159 -278 240 -317
261 -16 8 -74 42 -131 74 -175 100 -188 107 -188 99 0 -4 -4 -3 -8 2 -10 14
-379 195 -397 195 -4 0 -30 10 -58 23 -57 26 -222 84 -277 98 -46 11 -134 11
-185 -1 -53 -12 -119 -80 -109 -113 3 -12 12 -28 18 -36 6 -8 11 -37 12 -65 1
-82 73 -211 208 -371 61 -73 194 -205 207 -205 5 0 9 -6 9 -14 0 -7 19 -29 43
-49 23 -19 67 -59 98 -89 30 -29 91 -84 134 -123 44 -38 89 -80 101 -93 12
-12 37 -33 55 -45 19 -13 58 -40 86 -60 29 -20 57 -37 62 -37 5 0 14 -7 21
-15 17 -20 241 -145 261 -145 6 0 45 -14 86 -30 42 -17 92 -35 112 -40 20 -5
61 -16 91 -25 30 -9 104 -18 164 -20 59 -2 110 -6 112 -8 8 -8 -88 -116 -107
-122 -12 -4 -22 -19 -26 -36 -3 -16 -10 -32 -14 -35 -5 -3 -9 -16 -9 -29 0
-56 195 -164 347 -191 109 -20 286 -14 312 11 10 8 25 15 33 15 28 0 41 27 34
73 -4 23 -9 69 -12 102 l-5 61 166 -3 c91 -2 193 1 228 7 34 6 100 17 147 25
47 9 110 20 141 25 108 18 435 126 524 172 28 15 61 30 75 33 14 4 32 13 40
20 8 7 38 25 65 40 28 15 59 36 71 46 11 11 25 19 31 19 15 0 158 113 203 160
19 20 44 43 55 51 60 42 225 268 260 356 44 108 -3 165 -148 179 -112 11 -357
2 -442 -16 -22 -5 -56 -12 -75 -15 -19 -3 -48 -10 -65 -15 -16 -5 -43 -12 -60
-16 -16 -4 -32 -8 -35 -9 -3 -1 -25 -5 -50 -9 -25 -5 -56 -14 -70 -21 -14 -7
-45 -15 -68 -19 -43 -6 -189 -60 -247 -90 -16 -9 -36 -16 -43 -16 -8 0 -26 -6
-40 -14 -15 -7 -63 -30 -107 -50 -44 -21 -116 -59 -160 -85 -44 -26 -135 -79
-203 -117 -67 -38 -134 -79 -149 -92 -14 -12 -28 -20 -31 -18 -2 3 3 26 12 53
8 26 18 64 21 83 3 19 15 76 26 125 19 88 36 191 45 270 2 22 6 54 9 72 3 18
6 96 6 174 l0 142 20 -19 c21 -19 65 -47 129 -82 52 -29 103 -23 145 18 43 42
77 147 78 246 1 56 5 71 17 71 8 0 20 -3 25 -8 6 -4 28 -4 49 1 41 9 99 61
135 120 69 116 75 133 74 208 -1 72 5 84 26 58 15 -17 95 -36 155 -36 57 0
138 42 178 93 62 77 48 216 -33 334 l-31 45 86 -7 c112 -10 145 -2 205 45 61
48 75 87 74 200 -1 133 -51 223 -172 304 -92 62 -147 86 -232 102 -8 2 -26 8
-40 13 -21 8 -17 10 26 11 28 1 64 4 80 6 17 2 49 6 72 9 54 8 142 86 144 128
1 15 2 33 3 40 9 60 -115 181 -209 202 -49 12 -135 25 -164 26 -40 0 -45 -3
54 38 22 9 67 42 101 74 48 44 67 71 84 118 l23 60 -22 45 c-44 86 -127 124
-276 124 -49 0 -107 -4 -127 -9 -22 -5 -38 -5 -38 0 0 5 20 36 45 68 29 38 55
88 71 138 22 67 25 89 20 155 -11 132 -54 216 -123 239 -87 29 -228 4 -318
-56 -42 -27 -122 -98 -209 -182 -18 -17 -18 -17 -13 2 22 74 28 118 22 142 -4
16 -9 55 -12 87 -6 95 -64 181 -168 250 -43 28 -78 32 -141 12z m115 -137 c68
-43 85 -81 83 -184 -2 -98 -11 -163 -23 -171 -5 -3 -9 -19 -9 -36 0 -17 -9
-47 -19 -67 -11 -20 -26 -52 -34 -71 -67 -158 -87 -190 -124 -190 -13 0 -31
-9 -40 -20 -15 -17 -43 -28 -43 -16 0 2 -4 26 -10 54 -5 28 -12 73 -15 99 -4
26 -9 57 -12 68 -6 19 -5 47 1 215 7 164 102 341 188 349 4 1 29 -13 57 -30z
m-569 -181 c21 -16 43 -42 48 -57 33 -87 50 -141 57 -181 4 -25 13 -70 21
-100 14 -56 17 -196 5 -240 -5 -18 -15 -26 -34 -28 -15 -2 -27 1 -27 7 0 18
-130 203 -172 244 -43 42 -68 134 -62 229 5 90 13 116 46 143 37 32 63 28 118
-17z m1270 -55 c29 -29 39 -70 35 -142 -3 -41 -9 -77 -14 -81 -6 -3 -12 -18
-15 -34 -3 -15 -10 -34 -17 -42 -6 -8 -8 -14 -3 -14 5 0 4 -4 -1 -8 -6 -4 -22
-25 -36 -48 -55 -84 -154 -193 -209 -228 -88 -57 -239 -85 -280 -51 -11 9
-102 60 -128 71 -4 2 28 60 82 147 22 37 48 81 57 97 9 17 50 67 90 111 41 44
73 84 72 89 -2 6 3 10 10 10 7 0 28 14 47 30 54 47 58 50 71 50 7 0 20 6 28
14 40 35 186 55 211 29z m-1737 -70 c87 -45 217 -177 217 -220 0 -6 12 -37 26
-69 31 -71 87 -251 82 -266 -2 -6 -24 -19 -48 -28 -43 -17 -47 -17 -80 0 -19
9 -55 27 -80 39 -44 21 -92 48 -156 87 -64 39 -143 111 -173 156 -55 83 -39
150 58 249 70 70 100 80 154 52z m746 -447 c-2 -2 -24 -7 -47 -11 l-44 -7 15
23 c8 13 18 47 22 74 l7 50 25 -63 c14 -35 24 -64 22 -66z m-338 -19 l26 -43
-23 -11 c-26 -12 -28 -8 -38 60 -8 49 3 47 35 -6z m634 -17 c3 -5 -1 -10 -10
-10 -9 0 -13 5 -10 10 3 6 8 10 10 10 2 0 7 -4 10 -10z m990 -45 c11 -4 30
-17 42 -27 21 -20 21 -20 3 -51 -22 -37 -88 -103 -122 -123 -79 -45 -183 -94
-200 -94 -11 0 -27 -4 -36 -9 -9 -5 -30 -11 -47 -14 -16 -3 -52 -11 -79 -18
-37 -9 -53 -9 -67 -1 -10 7 -26 12 -34 12 -9 0 -18 7 -21 15 -3 8 -14 17 -23
20 -10 3 -24 17 -31 31 -12 22 -12 27 0 35 13 8 13 10 0 20 -13 9 -13 10 1 6
10 -3 27 5 42 21 54 58 205 149 282 171 91 26 231 29 290 6z m-2397 -6 c37
-11 92 -33 122 -49 30 -16 87 -45 126 -64 65 -32 144 -101 144 -126 0 -5 -15
-20 -34 -32 -19 -13 -53 -54 -77 -95 -44 -74 -70 -93 -106 -78 -10 4 -43 9
-73 11 -91 8 -193 48 -290 113 -25 17 -52 31 -61 31 -9 0 -33 19 -54 41 -32
36 -37 46 -32 79 2 20 15 52 27 71 26 39 100 101 132 111 44 12 110 8 176 -13z
m1343 -58 c31 -10 84 -39 118 -63 35 -23 74 -51 89 -60 15 -10 45 -37 68 -60
23 -24 62 -63 88 -87 25 -24 46 -47 46 -51 0 -5 11 -21 24 -37 21 -25 96 -165
117 -218 18 -46 54 -192 66 -273 8 -59 8 -72 -2 -147 -4 -33 -8 -67 -8 -75 0
-8 -3 -19 -7 -25 -4 -5 -13 -32 -20 -60 -33 -121 -151 -283 -249 -341 -17 -10
-31 -22 -31 -26 0 -4 -10 -8 -22 -8 -12 0 -55 -16 -96 -36 -41 -19 -98 -40
-126 -45 -83 -16 -236 -21 -283 -10 -24 6 -64 16 -90 22 -27 6 -57 15 -68 19
-11 5 -42 18 -69 29 -27 12 -57 21 -67 21 -10 0 -25 13 -34 30 -19 36 -59 64
-80 56 -14 -5 -135 69 -135 83 0 3 -32 40 -71 81 -42 45 -84 103 -105 145 -19
39 -41 81 -49 95 -52 97 -71 192 -67 345 3 104 17 164 59 250 70 144 111 199
168 225 24 11 61 36 82 56 53 50 247 143 315 151 29 3 62 11 73 16 58 31 273
30 366 -2z m-870 -75 c22 -6 23 -7 6 -17 -10 -6 -22 -22 -27 -35 -11 -29 -30
-32 -30 -5 0 11 -7 27 -16 35 -8 9 -13 16 -9 16 3 0 -3 14 -15 30 l-22 30 45
-23 c24 -13 55 -27 68 -31z m1289 -23 c-1 -5 -6 -18 -13 -31 l-13 -23 -18 20
c-18 20 -18 21 5 30 30 12 39 13 39 4z m698 -316 c30 -15 59 -27 65 -28 7 0
22 -13 35 -29 39 -50 5 -82 -103 -94 -99 -12 -446 -6 -450 7 -1 1 -13 30 -27
64 -15 35 -23 65 -19 67 12 8 101 27 151 33 25 3 47 7 50 10 3 3 59 3 125 1
107 -3 126 -6 173 -31z m-2286 -169 c-4 -18 -7 -76 -6 -130 1 -92 0 -97 -23
-107 -12 -6 -23 -15 -23 -21 0 -6 -4 -9 -8 -6 -4 2 -28 -4 -52 -15 -44 -20
-184 -67 -220 -74 -10 -2 -33 -8 -51 -13 -48 -13 -306 -9 -320 5 -21 21 20 83
119 181 78 78 108 100 176 131 71 33 182 60 246 59 22 0 104 14 109 18 2 2 17
4 32 4 27 0 28 -2 21 -32z m1908 -112 c-26 -13 -40 -12 -40 5 0 5 15 9 33 9
l32 0 -25 -14z m225 -86 c138 -44 211 -75 259 -113 88 -68 116 -114 124 -203
6 -80 -1 -107 -35 -130 -29 -19 -163 -30 -163 -14 0 5 -8 8 -17 8 -10 0 -54 7
-98 17 -44 9 -84 18 -90 19 -26 5 -93 31 -121 46 -17 10 -44 21 -61 24 -38 9
-52 24 -45 51 10 43 13 264 3 300 l-10 38 77 -6 c42 -3 122 -20 177 -37z
m-2087 -245 c2 -11 18 -48 35 -83 29 -57 30 -64 15 -73 -9 -5 -32 -32 -52 -59
-36 -50 -113 -107 -201 -150 -65 -32 -257 -54 -371 -44 -83 8 -120 29 -109 63
10 33 80 109 143 157 32 23 65 50 75 58 9 9 19 16 22 16 3 0 9 0 15 0 5 0 17
8 27 19 36 37 184 90 276 98 34 3 69 9 77 14 23 13 44 6 48 -16z m1830 -238
c15 -8 54 -19 86 -26 113 -25 191 -72 223 -135 8 -17 25 -41 36 -53 11 -13 17
-23 13 -23 -5 0 -1 -12 9 -26 34 -53 -9 -166 -70 -182 -65 -18 -107 4 -217
112 -57 55 -110 117 -120 138 -9 20 -26 46 -39 59 l-23 23 34 63 c19 35 36 63
37 63 2 0 16 -6 31 -13z m-1690 -19 c20 -20 13 -33 -18 -33 -35 0 -34 -1 -18
25 15 23 20 24 36 8z m39 -175 c-10 -131 -80 -239 -221 -345 -74 -56 -150 -90
-205 -91 -26 0 -52 3 -58 6 -27 17 24 138 89 209 21 24 56 62 76 85 49 56 208
165 272 186 46 16 52 10 47 -50z m151 -38 l22 -25 -25 -10 c-13 -5 -30 -18
-37 -30 -7 -11 -16 -20 -21 -20 -4 0 -5 6 0 13 4 6 8 14 9 17 9 52 18 80 23
80 4 0 17 -11 29 -25z m1346 3 c9 -12 14 -24 12 -26 -9 -8 -46 19 -46 33 0 22
17 18 34 -7z m-34 -81 c49 -47 104 -109 114 -129 9 -18 28 -48 50 -80 21 -32
17 -78 -15 -143 -19 -41 -100 -135 -116 -135 -16 0 -73 135 -73 175 0 9 -4 23
-9 33 -10 19 -29 62 -59 137 -26 65 -34 122 -19 135 42 35 63 49 72 50 6 0 30
-19 55 -43z m-1168 -11 c41 -39 53 -150 32 -276 -21 -121 -72 -200 -163 -251
-61 -35 -108 -43 -134 -25 -27 20 -49 84 -42 120 20 98 132 328 193 396 7 8
22 30 33 48 21 36 31 35 81 -12z m178 -98 c0 -5 -7 -16 -15 -24 -13 -14 -15
-12 -15 15 0 23 4 29 15 25 8 -4 15 -10 15 -16z m710 -11 c24 -19 100 -131
100 -148 0 -8 4 -19 8 -24 18 -21 46 -222 43 -317 -3 -116 -30 -218 -57 -218
-36 0 -145 90 -205 170 -18 25 -37 48 -42 51 -20 14 -129 233 -144 289 -16 59
-16 140 -1 141 7 0 22 2 33 4 11 2 47 9 80 14 33 6 83 20 110 30 61 23 57 23
75 8z m-555 -29 c28 -7 55 -11 62 -10 24 5 57 -88 89 -248 3 -19 9 -39 12 -45
11 -18 11 -229 0 -275 -16 -64 -43 -125 -67 -149 -38 -38 -69 -27 -147 47 -39
37 -77 78 -86 92 -22 37 -39 119 -37 181 2 75 28 308 39 344 4 17 11 43 14 58
7 31 6 31 121 5z m315 -502 c0 -5 16 -31 35 -58 20 -27 33 -53 30 -58 -7 -11
-21 -128 -30 -235 -9 -124 -27 -259 -35 -270 -5 -5 -13 -46 -19 -90 -7 -44
-21 -114 -32 -155 -11 -41 -27 -100 -35 -130 -15 -57 -35 -116 -61 -185 -8
-22 -38 -62 -67 -90 -30 -27 -59 -61 -66 -74 l-13 -25 -14 27 c-7 15 -21 27
-29 27 -10 0 -14 6 -11 14 31 79 71 216 83 281 32 165 44 248 49 325 3 29 7
68 11 85 10 42 6 183 -5 223 -9 30 -8 33 22 46 83 35 144 156 154 303 5 72 8
81 19 65 7 -9 14 -21 14 -26z m-2090 -16 c113 -36 102 -32 406 -174 78 -36
148 -66 157 -66 8 0 17 -3 19 -8 2 -4 41 -27 88 -51 47 -24 96 -52 109 -62 13
-11 30 -19 37 -19 8 0 14 -4 14 -10 0 -5 6 -10 13 -10 18 0 237 -151 248 -172
5 -10 14 -18 19 -18 12 0 32 -17 91 -76 106 -104 212 -232 281 -341 66 -103
110 -163 119 -163 4 0 13 -9 19 -21 9 -15 8 -24 -1 -35 -7 -8 -12 -35 -12 -60
0 -38 -3 -44 -21 -45 -147 -7 -321 7 -365 30 -11 6 -27 11 -37 11 -9 0 -50 16
-90 35 -40 19 -76 35 -81 35 -4 1 -26 9 -48 20 -22 11 -45 19 -50 20 -6 0 -33
15 -60 33 -28 19 -63 40 -80 48 -51 26 -79 43 -95 60 -8 8 -22 20 -31 25 -24
13 -96 72 -152 124 -63 59 -94 87 -148 134 -24 21 -78 69 -119 106 -41 37 -97
87 -125 111 -27 24 -57 53 -65 64 -8 11 -32 36 -53 55 -22 19 -67 69 -100 110
-33 41 -67 82 -74 90 -39 45 -62 80 -82 128 -12 30 -21 55 -19 56 2 1 20 16
41 34 33 28 45 32 95 32 37 0 92 -11 152 -30z m3933 -589 c56 -1 58 -2 52 -23
-4 -13 -14 -34 -24 -47 -9 -13 -21 -33 -28 -44 -6 -11 -15 -22 -20 -26 -5 -3
-16 -17 -24 -31 -16 -25 -123 -152 -170 -202 -15 -16 -31 -28 -38 -28 -6 0
-11 -4 -11 -8 0 -10 -133 -115 -202 -158 -52 -33 -133 -74 -153 -77 -5 -1 -12
-4 -15 -7 -17 -19 -184 -90 -211 -90 -11 0 -19 -4 -19 -9 0 -10 -22 -19 -67
-27 -15 -3 -32 -9 -38 -13 -5 -5 -37 -15 -70 -24 -33 -9 -94 -25 -135 -36 -41
-11 -92 -21 -113 -21 -21 0 -46 -4 -55 -9 -9 -5 -35 -11 -58 -13 -23 -3 -45
-8 -50 -11 -5 -3 -56 -8 -114 -12 -58 -4 -114 -7 -125 -8 -67 -5 -282 16 -337
32 -35 11 -73 21 -86 23 -19 3 -12 12 55 69 43 36 89 72 103 79 14 7 38 28 53
46 16 19 34 34 40 34 12 0 97 55 107 68 8 12 260 162 332 199 37 18 70 38 73
43 3 6 13 10 21 10 8 0 31 11 52 24 20 12 71 37 112 55 41 17 89 38 105 45 46
21 116 48 150 56 17 5 59 19 95 33 36 13 83 27 105 31 22 4 51 11 65 15 14 5
43 14 64 21 46 15 132 28 226 36 36 3 70 7 75 9 6 2 57 2 115 0 58 -1 131 -3
163 -4z m-2183 -852 c0 -26 3 -31 20 -26 11 3 20 1 20 -4 0 -17 106 -86 151
-99 l46 -13 -1 -89 -1 -88 -35 -10 c-22 -6 -57 -6 -90 -1 -30 5 -64 9 -75 8
-43 -2 -137 16 -149 28 -7 8 -28 16 -47 20 -19 3 -45 15 -59 26 l-25 19 21 18
c23 18 57 68 109 156 19 32 43 58 65 68 47 24 50 23 50 -13z"/>
<path d="M1000 1567 c20 -17 71 -61 115 -97 43 -36 102 -86 130 -112 29 -27
56 -48 61 -48 6 0 41 -28 79 -63 39 -34 95 -83 125 -109 30 -26 91 -81 135
-122 65 -61 86 -75 112 -76 71 0 63 68 -14 124 -23 17 -72 54 -110 83 -37 29
-88 67 -113 86 -25 19 -81 59 -125 89 -44 30 -107 75 -140 100 -89 68 -261
178 -276 178 -8 0 2 -15 21 -33z"/>
<path d="M4175 1083 c-11 -2 -38 -10 -60 -18 -54 -18 -429 -137 -590 -186 -71
-23 -152 -49 -180 -59 -27 -10 -84 -28 -125 -40 -98 -28 -169 -61 -176 -82 -8
-25 13 -57 43 -64 17 -5 40 0 70 15 24 11 51 21 61 21 10 0 26 6 37 14 11 7
31 17 45 21 46 13 553 202 605 225 11 5 49 21 85 36 109 45 221 104 215 114
-3 6 -7 9 -8 9 -1 -1 -11 -3 -22 -6z"/>
</g>
</svg>
